# Blender 4.0.2
# www.blender.org
mtllib L.mtl
o L
v 0.212012 0.040000 0.234680
v 0.212012 0.040000 0.322680
v -0.193988 0.040000 0.322680
v -0.193988 0.040000 -0.359320
v -0.095988 0.040000 -0.359320
v -0.095988 0.040000 0.234680
v 0.212012 -0.040000 0.234680
v 0.212012 -0.040000 0.322680
v -0.193988 -0.040000 0.322680
v -0.193988 -0.040000 -0.359320
v -0.095988 -0.040000 -0.359320
v -0.095988 -0.040000 0.234680
v 0.212012 -0.040000 0.234680
v 0.212012 0.040000 0.234680
v 0.212012 -0.040000 0.322680
v 0.212012 0.040000 0.322680
v -0.193988 -0.040000 0.322680
v -0.193988 0.040000 0.322680
v -0.193988 -0.040000 -0.359320
v -0.193988 0.040000 -0.359320
v -0.095988 -0.040000 -0.359320
v -0.095988 0.040000 -0.359320
v -0.095988 -0.040000 0.234680
v -0.095988 0.040000 0.234680
vn -0.0000 1.0000 -0.0000
vn -0.0000 -1.0000 -0.0000
vn 0.7071 -0.0000 -0.7071
vn 0.7071 -0.0000 0.7071
vn -0.7071 -0.0000 0.7071
vn -0.7071 -0.0000 -0.7071
vt 0.400000 0.000000
vt 0.800000 0.000000
vt 0.600000 0.000000
vt 1.000000 0.000000
vt 0.000000 0.000000
vt 0.200000 0.000000
vt 0.000000 1.000000
vt 0.166667 1.000000
vt 0.166667 0.000000
vt 0.333333 1.000000
vt 0.333333 0.000000
vt 0.500000 1.000000
vt 0.500000 0.000000
vt 0.666667 1.000000
vt 0.666667 0.000000
vt 0.833333 1.000000
vt 0.833333 0.000000
vt 1.000000 1.000000
s 0
f 3/1/1 5/2/1 4/3/1
f 3/1/1 6/4/1 5/2/1
f 3/1/1 1/5/1 6/4/1
f 3/1/1 2/6/1 1/5/1
f 9/1/2 10/3/2 11/2/2
f 9/1/2 11/2/2 12/4/2
f 9/1/2 12/4/2 7/5/2
f 9/1/2 7/5/2 8/6/2
s 1
f 14/7/3 16/8/4 15/9/4 13/5/3
f 16/8/4 18/10/5 17/11/5 15/9/4
f 18/10/5 20/12/6 19/13/6 17/11/5
f 20/12/6 22/14/3 21/15/3 19/13/6
f 22/14/3 24/16/3 23/17/3 21/15/3
f 24/16/3 14/18/3 13/4/3 23/17/3
